<svg xmlns="http://www.w3.org/2000/svg" version="1.1" xmlns:xlink="http://www.w3.org/1999/xlink" xmlns:svgjs="http://svgjs.dev/svgjs" width="2000" height="247" viewBox="0 0 2000 247"><g transform="matrix(1,0,0,1,-1.2121212121212466,-0.9110840101933775)"><svg viewBox="0 0 396 49" data-background-color="#111111" preserveAspectRatio="xMidYMid meet" height="247" width="2000" xmlns="http://www.w3.org/2000/svg" xmlns:xlink="http://www.w3.org/1999/xlink"><g id="tight-bounds" transform="matrix(1,0,0,1,0.2400000000000091,0.18074136234605476)"><svg viewBox="0 0 395.52 48.638517275307905" height="48.638517275307905" width="395.52"><g><svg viewBox="0 0 503.419020171022 61.90724795031056" height="48.638517275307905" width="395.52"><g transform="matrix(1,0,0,1,0,1.0900214906832346)"><svg viewBox="0 0 395.52 59.72720496894409" height="59.72720496894409" width="395.52"><g id="textblocktransform"><svg viewBox="0 0 395.52 59.72720496894409" height="59.72720496894409" width="395.52" id="textblock"><g><svg viewBox="0 0 395.52 59.72720496894409" height="59.72720496894409" width="395.52"><g transform="matrix(1,0,0,1,0,0)"><svg width="395.52" viewBox="3.61 -37.5 251.54 37.99" height="59.72720496894409" data-palette-color="#ffffff"><path d="M3.61-35.55L11.62-35.55 21.88-8.3 32.1-35.55 40.09-35.55 40.09 0 33.94 0 33.94-11.72 34.55-27.39 24.05 0 19.63 0 9.16-27.37 9.77-11.72 9.77 0 3.61 0 3.61-35.55ZM68.65 0L62.6 0Q62.2-0.76 61.91-2.47L61.91-2.47Q59.08 0.49 54.98 0.49L54.98 0.49Q51 0.49 48.48-1.78 45.97-4.05 45.97-7.4L45.97-7.4Q45.97-11.62 49.11-13.88 52.24-16.14 58.08-16.14L58.08-16.14 61.72-16.14 61.72-17.87Q61.72-19.92 60.57-21.15 59.42-22.39 57.08-22.39L57.08-22.39Q55.05-22.39 53.76-21.37 52.46-20.36 52.46-18.8L52.46-18.8 46.53-18.8Q46.53-20.97 47.97-22.86 49.41-24.76 51.89-25.83 54.37-26.9 57.42-26.9L57.42-26.9Q62.06-26.9 64.82-24.57 67.58-22.24 67.65-18.02L67.65-18.02 67.65-6.1Q67.65-2.54 68.65-0.42L68.65-0.42 68.65 0ZM56.08-4.27L56.08-4.27Q57.83-4.27 59.38-5.13 60.94-5.98 61.72-7.42L61.72-7.42 61.72-12.4 58.52-12.4Q55.22-12.4 53.56-11.25 51.9-10.11 51.9-8.01L51.9-8.01Q51.9-6.3 53.04-5.29 54.17-4.27 56.08-4.27ZM75.36-32.84L81.29-32.84 81.29-26.42 85.96-26.42 85.96-22.02 81.29-22.02 81.29-7.28Q81.29-5.76 81.89-5.09 82.49-4.42 84.03-4.42L84.03-4.42Q85.05-4.42 86.1-4.66L86.1-4.66 86.1-0.07Q84.08 0.49 82.2 0.49L82.2 0.49Q75.36 0.49 75.36-7.06L75.36-7.06 75.36-22.02 71.02-22.02 71.02-26.42 75.36-26.42 75.36-32.84ZM109.64-9.16L109.64-9.16Q109.64-11.5 107.99-12.77 106.34-14.04 102.04-15.33 97.75-16.63 95.21-18.21L95.21-18.21Q90.35-21.26 90.35-26.17L90.35-26.17Q90.35-30.47 93.85-33.25 97.36-36.04 102.95-36.04L102.95-36.04Q106.66-36.04 109.56-34.67 112.47-33.3 114.13-30.77 115.79-28.25 115.79-25.17L115.79-25.17 109.64-25.17Q109.64-27.95 107.89-29.53 106.14-31.1 102.9-31.1L102.9-31.1Q99.87-31.1 98.2-29.81 96.53-28.52 96.53-26.2L96.53-26.2Q96.53-24.24 98.33-22.94 100.14-21.63 104.29-20.4 108.44-19.17 110.95-17.59 113.47-16.02 114.64-13.98 115.81-11.94 115.81-9.2L115.81-9.2Q115.81-4.76 112.41-2.14 109 0.49 103.17 0.49L103.17 0.49Q99.31 0.49 96.07-0.94 92.84-2.37 91.04-4.88 89.25-7.4 89.25-10.74L89.25-10.74 95.43-10.74Q95.43-7.71 97.43-6.05 99.43-4.39 103.17-4.39L103.17-4.39Q106.39-4.39 108.01-5.7 109.64-7.01 109.64-9.16ZM122.16-32.84L128.09-32.84 128.09-26.42 132.75-26.42 132.75-22.02 128.09-22.02 128.09-7.28Q128.09-5.76 128.69-5.09 129.29-4.42 130.82-4.42L130.82-4.42Q131.85-4.42 132.9-4.66L132.9-4.66 132.9-0.07Q130.87 0.49 128.99 0.49L128.99 0.49Q122.16 0.49 122.16-7.06L122.16-7.06 122.16-22.02 117.81-22.02 117.81-26.42 122.16-26.42 122.16-32.84ZM153.43 0L153.28-2.59Q150.67 0.49 145.86 0.49L145.86 0.49Q141.56 0.49 139.36-2.03 137.15-4.54 137.15-9.3L137.15-9.3 137.15-26.42 143.08-26.42 143.08-9.38Q143.08-4.35 147.25-4.35L147.25-4.35Q151.57-4.35 153.09-7.45L153.09-7.45 153.09-26.42 159.02-26.42 159.02 0 153.43 0ZM163.95-13.4L163.95-13.4Q163.95-19.51 166.78-23.21 169.61-26.9 174.37-26.9L174.37-26.9Q178.57-26.9 181.16-23.97L181.16-23.97 181.16-37.5 187.09-37.5 187.09 0 181.72 0 181.43-2.73Q178.77 0.49 174.33 0.49L174.33 0.49Q169.69 0.49 166.82-3.25 163.95-6.98 163.95-13.4ZM169.88-12.89L169.88-12.89Q169.88-8.86 171.43-6.6 172.98-4.35 175.84-4.35L175.84-4.35Q179.48-4.35 181.16-7.59L181.16-7.59 181.16-18.87Q179.53-22.05 175.89-22.05L175.89-22.05Q173.01-22.05 171.44-19.76 169.88-17.48 169.88-12.89ZM199.59-26.42L199.59 0 193.66 0 193.66-26.42 199.59-26.42ZM193.29-33.28L193.29-33.28Q193.29-34.64 194.16-35.55 195.03-36.45 196.64-36.45 198.25-36.45 199.13-35.55 200.01-34.64 200.01-33.28L200.01-33.28Q200.01-31.93 199.13-31.04 198.25-30.15 196.64-30.15 195.03-30.15 194.16-31.04 193.29-31.93 193.29-33.28ZM204.94-13.16L204.94-13.45Q204.94-17.33 206.47-20.45 208.01-23.56 210.8-25.23 213.58-26.9 217.19-26.9L217.19-26.9Q222.54-26.9 225.87-23.46 229.2-20.02 229.47-14.33L229.47-14.33 229.5-12.94Q229.5-9.03 228-5.96 226.49-2.88 223.7-1.2 220.9 0.49 217.24 0.49L217.24 0.49Q211.65 0.49 208.29-3.23 204.94-6.96 204.94-13.16L204.94-13.16ZM210.87-12.94L210.87-12.94Q210.87-8.86 212.55-6.56 214.24-4.25 217.24-4.25 220.24-4.25 221.92-6.59 223.59-8.94 223.59-13.45L223.59-13.45Q223.59-17.46 221.87-19.8 220.15-22.14 217.19-22.14L217.19-22.14Q214.29-22.14 212.58-19.84 210.87-17.53 210.87-12.94ZM249.32-7.18L249.32-7.18Q249.32-8.76 248.01-9.59 246.71-10.42 243.68-11.06 240.65-11.69 238.62-12.67L238.62-12.67Q234.18-14.82 234.18-18.9L234.18-18.9Q234.18-22.31 237.06-24.61 239.94-26.9 244.39-26.9L244.39-26.9Q249.12-26.9 252.04-24.56 254.96-22.22 254.96-18.48L254.96-18.48 249.03-18.48Q249.03-20.19 247.76-21.33 246.49-22.46 244.39-22.46L244.39-22.46Q242.43-22.46 241.2-21.56 239.97-20.65 239.97-19.14L239.97-19.14Q239.97-17.77 241.12-17.02 242.26-16.26 245.75-15.49 249.25-14.72 251.23-13.66 253.22-12.6 254.19-11.11 255.15-9.62 255.15-7.5L255.15-7.5Q255.15-3.93 252.2-1.72 249.25 0.49 244.46 0.49L244.46 0.49Q241.21 0.49 238.67-0.68 236.13-1.86 234.72-3.91 233.3-5.96 233.3-8.33L233.3-8.33 239.06-8.33Q239.19-6.23 240.65-5.09 242.12-3.96 244.53-3.96L244.53-3.96Q246.88-3.96 248.1-4.85 249.32-5.74 249.32-7.18Z" opacity="1" transform="matrix(1,0,0,1,0,0)" fill="#ffffff" class="wordmark-text-0" data-fill-palette-color="primary" id="text-0"></path></svg></g></svg></g></svg></g></svg></g><g transform="matrix(1,0,0,1,409.6201596402484,0)"><svg viewBox="0 0 93.79886053077358 61.90724795031056" height="61.90724795031056" width="93.79886053077358"><g><svg xmlns="http://www.w3.org/2000/svg" xmlns:xlink="http://www.w3.org/1999/xlink" version="1.1" x="0" y="0" viewBox="0 17 100 66" enable-background="new 0 0 100 100" xml:space="preserve" height="61.90724795031056" width="93.79886053077358" class="icon-icon-0" data-fill-palette-color="accent" id="icon-0"><g display="none" fill="#ffffff" data-fill-palette-color="accent"><path display="inline" fill-rule="evenodd" clip-rule="evenodd" d="M20.574 64.951h11.054c-0.673-1.912-1.123-3.93-1.318-6.023h-8.533c-7.975 0-14.44-6.473-14.44-14.456 0-7.983 6.466-14.456 14.44-14.456h21.862c7.977 0 14.441 6.473 14.441 14.456 0 6.489-4.268 11.978-10.146 13.806 0.824 1.5 2.18 3.689 3.862 5.385C59.568 60.76 65.1 53.266 65.1 44.472c0-11.31-9.158-20.479-20.458-20.479H20.574c-11.299 0-20.458 9.17-20.458 20.479C0.116 55.785 9.275 64.951 20.574 64.951z" fill="#ffffff" data-fill-palette-color="accent"></path><path display="inline" fill-rule="evenodd" clip-rule="evenodd" d="M35.015 56.52c0 11.311 9.16 20.48 20.458 20.48h24.068C90.841 77 100 67.83 100 56.52c0-11.312-9.159-20.48-20.458-20.48H68.471c0.677 1.913 1.13 3.931 1.33 6.023h8.738c7.974 0 14.439 6.474 14.439 14.457 0 7.984-6.466 14.457-14.439 14.457H56.677c-7.976 0-14.442-6.473-14.442-14.457 0-6.615 4.437-12.19 10.495-13.908-0.447-2.259-1.676-4.238-3.4-5.632C41.034 39.592 35.015 47.352 35.015 56.52z" fill="#ffffff" data-fill-palette-color="accent"></path></g><g fill="#ffffff" data-fill-palette-color="accent"><path d="M88 17H12C5.373 17 0 22.373 0 29v42c0 6.627 5.373 12 12 12h76c6.627 0 12-5.373 12-12V29C100 22.373 94.627 17 88 17zM42 62.802V35.913l23.287 13.445L42 62.802z" fill="#ffffff" data-fill-palette-color="accent"></path></g></svg></g></svg></g></svg></g><defs></defs></svg><rect width="395.52" height="48.638517275307905" fill="none" stroke="none" visibility="hidden"></rect></g></svg></g></svg>