<svg xmlns="http://www.w3.org/2000/svg" version="1.1" xmlns:xlink="http://www.w3.org/1999/xlink" xmlns:svgjs="http://svgjs.dev/svgjs" width="1500" height="1500" viewBox="0 0 1500 1500"><rect width="1500" height="1500" fill="#000000"></rect><g transform="matrix(0.6666666666666666,0,0,0.6666666666666666,249.39393939393938,654.1089205279959)"><svg viewBox="0 0 396 76" data-background-color="#ffffff" preserveAspectRatio="xMidYMid meet" height="287" width="1500" xmlns="http://www.w3.org/2000/svg" xmlns:xlink="http://www.w3.org/1999/xlink"><g id="tight-bounds" transform="matrix(1,0,0,1,0.2400000000000091,0.08913958121419796)"><svg viewBox="0 0 395.52 75.82172083757159" height="75.82172083757159" width="395.52"><g><svg viewBox="0 0 576.2920253407494 110.47596345647513" height="75.82172083757159" width="395.52"><g transform="matrix(1,0,0,1,0,26.890750493703607)"><svg viewBox="0 0 395.52 56.694462469067915" height="56.694462469067915" width="395.52"><g id="textblocktransform"><svg viewBox="0 0 395.52 56.694462469067915" height="56.694462469067915" width="395.52" id="textblock"><g><svg viewBox="0 0 395.52 56.694462469067915" height="56.694462469067915" width="395.52"><g transform="matrix(1,0,0,1,0,0)"><svg width="395.52" viewBox="3 -37.7 266.36 38.190000000000005" height="56.694462469067915" data-palette-color="#096a2e"><path d="M37.99-25L37.99 0 31.01 0 31.01-25Q31.01-25.73 30.73-26.37 30.44-27 29.97-27.48 29.49-27.95 28.86-28.22 28.22-28.49 27.49-28.49L27.49-28.49Q26.76-28.49 26.12-28.22 25.49-27.95 25.01-27.48 24.54-27 24.27-26.37 24-25.73 24-25L24-25 24 0 16.99 0 16.99-25Q16.99-25.73 16.72-26.37 16.46-27 15.98-27.48 15.5-27.95 14.87-28.22 14.23-28.49 13.5-28.49L13.5-28.49Q12.77-28.49 12.13-28.22 11.5-27.95 11.02-27.48 10.55-27 10.28-26.37 10.01-25.73 10.01-25L10.01-25 10.01 0 3 0 3-25Q3-27.17 3.82-29.09 4.64-31.01 6.07-32.43 7.5-33.86 9.41-34.68 11.33-35.5 13.5-35.5L13.5-35.5Q15.45-35.5 17.26-34.8 19.07-34.11 20.51-32.79L20.51-32.79Q21.95-34.11 23.74-34.8 25.54-35.5 27.49-35.5L27.49-35.5Q29.66-35.5 31.58-34.68 33.5-33.86 34.92-32.43 36.35-31.01 37.17-29.09 37.99-27.17 37.99-25L37.99-25ZM68.55-26.1L68.55 0 66.94 0 64.35-3.59Q63.4-2.73 62.34-1.99 61.28-1.25 60.1-0.7 58.93-0.15 57.7 0.17 56.47 0.49 55.2 0.49L55.2 0.49Q52.44 0.49 50.01-0.44 47.58-1.37 45.76-3.14 43.94-4.91 42.89-7.47 41.84-10.03 41.84-13.31L41.84-13.31Q41.84-16.36 42.89-18.91 43.94-21.46 45.76-23.29 47.58-25.12 50.01-26.14 52.44-27.15 55.2-27.15L55.2-27.15Q56.47-27.15 57.71-26.83 58.96-26.51 60.13-25.95 61.3-25.39 62.36-24.63 63.43-23.88 64.35-23L64.35-23 66.94-26.1 68.55-26.1ZM61.84-13.31L61.84-13.31Q61.84-14.67 61.31-15.95 60.79-17.24 59.89-18.23 58.98-19.21 57.77-19.81 56.56-20.41 55.2-20.41L55.2-20.41Q53.83-20.41 52.62-19.95 51.41-19.48 50.52-18.58 49.63-17.68 49.12-16.35 48.61-15.01 48.61-13.31L48.61-13.31Q48.61-11.6 49.12-10.27 49.63-8.94 50.52-8.03 51.41-7.13 52.62-6.67 53.83-6.2 55.2-6.2L55.2-6.2Q56.56-6.2 57.77-6.8 58.98-7.4 59.89-8.39 60.79-9.38 61.31-10.66 61.84-11.94 61.84-13.31ZM91.79 0L86.74 0Q84.32 0 82.2-0.92 80.07-1.83 78.47-3.43 76.87-5.03 75.96-7.15 75.04-9.28 75.04-11.69L75.04-11.69 75.04-19.46 71.8-19.46 71.8-26.1 75.04-26.1 75.04-36.55 81.68-36.55 81.68-26.1 91.79-26.1 91.79-19.46 81.68-19.46 81.68-11.69Q81.68-10.64 82.08-9.73 82.47-8.81 83.15-8.13 83.83-7.45 84.76-7.04 85.69-6.64 86.74-6.64L86.74-6.64 91.79-6.64 91.79 0ZM94.18-24.51L94.18-24.51Q94.18-26.68 95.01-28.59 95.84-30.49 97.27-31.92 98.7-33.35 100.6-34.18 102.51-35.01 104.68-35.01L104.68-35.01 120.74-35.01 120.74-28 104.68-28Q103.95-28 103.31-27.73 102.68-27.47 102.2-26.99 101.73-26.51 101.46-25.88 101.19-25.24 101.19-24.51L101.19-24.51Q101.19-23.78 101.46-23.13 101.73-22.49 102.2-22.01 102.68-21.53 103.31-21.26 103.95-21 104.68-21L104.68-21 111.69-21Q113.86-21 115.78-20.18 117.69-19.36 119.12-17.93 120.55-16.5 121.37-14.59 122.18-12.67 122.18-10.5L122.18-10.5Q122.18-8.33 121.37-6.42 120.55-4.52 119.12-3.09 117.69-1.66 115.78-0.83 113.86 0 111.69 0L111.69 0 96.14 0 96.14-7.01 111.69-7.01Q112.42-7.01 113.05-7.28 113.69-7.54 114.16-8.02 114.64-8.5 114.91-9.13 115.18-9.77 115.18-10.5L115.18-10.5Q115.18-11.23 114.91-11.87 114.64-12.5 114.16-12.98 113.69-13.45 113.05-13.72 112.42-13.99 111.69-13.99L111.69-13.99 104.68-13.99Q102.51-13.99 100.6-14.82 98.7-15.65 97.27-17.08 95.84-18.51 95.01-20.42 94.18-22.34 94.18-24.51ZM143.79 0L138.74 0Q136.32 0 134.19-0.92 132.07-1.83 130.47-3.43 128.87-5.03 127.96-7.15 127.04-9.28 127.04-11.69L127.04-11.69 127.04-19.46 123.79-19.46 123.79-26.1 127.04-26.1 127.04-36.55 133.68-36.55 133.68-26.1 143.79-26.1 143.79-19.46 133.68-19.46 133.68-11.69Q133.68-10.64 134.07-9.73 134.46-8.81 135.15-8.13 135.83-7.45 136.76-7.04 137.69-6.64 138.74-6.64L138.74-6.64 143.79-6.64 143.79 0ZM168.93 0L166.74-3.05Q165.93-2.32 165.01-1.67 164.1-1.03 163.1-0.55 162.1-0.07 161.03 0.21 159.97 0.49 158.87 0.49L158.87 0.49Q156.46 0.49 154.33-0.37 152.21-1.22 150.61-2.8 149.01-4.37 148.1-6.63 147.18-8.89 147.18-11.69L147.18-11.69 147.18-26.15 153.82-26.15 153.82-11.69Q153.82-10.38 154.22-9.34 154.63-8.3 155.31-7.59 155.99-6.88 156.91-6.52 157.82-6.15 158.87-6.15L158.87-6.15Q159.9-6.15 160.82-6.63 161.73-7.1 162.41-7.89 163.1-8.67 163.49-9.66 163.88-10.64 163.88-11.69L163.88-11.69 163.88-26.15 170.54-26.15 170.54 0 168.93 0ZM200.89-36.55L200.89 0 199.28 0 196.69-3.59Q195.74-2.73 194.67-1.99 193.61-1.25 192.44-0.7 191.27-0.15 190.04 0.17 188.8 0.49 187.53 0.49L187.53 0.49Q184.78 0.49 182.35-0.55 179.92-1.59 178.1-3.43 176.28-5.27 175.23-7.8 174.18-10.33 174.18-13.31L174.18-13.31Q174.18-16.26 175.23-18.8 176.28-21.34 178.1-23.19 179.92-25.05 182.35-26.1 184.78-27.15 187.53-27.15L187.53-27.15Q188.41-27.15 189.35-27 190.29-26.86 191.18-26.53 192.07-26.2 192.86-25.66 193.64-25.12 194.17-24.34L194.17-24.34 194.17-36.55 200.89-36.55ZM194.17-13.31L194.17-13.31Q194.17-14.67 193.65-15.95 193.12-17.24 192.22-18.23 191.32-19.21 190.11-19.81 188.9-20.41 187.53-20.41L187.53-20.41Q186.17-20.41 184.96-19.92 183.75-19.43 182.86-18.52 181.97-17.6 181.45-16.28 180.94-14.97 180.94-13.31L180.94-13.31Q180.94-11.87 181.45-10.57 181.97-9.28 182.86-8.3 183.75-7.32 184.96-6.76 186.17-6.2 187.53-6.2L187.53-6.2Q188.9-6.2 190.11-6.8 191.32-7.4 192.22-8.39 193.12-9.38 193.65-10.66 194.17-11.94 194.17-13.31ZM213.83-33.25L213.83-33.25Q213.83-32.32 213.47-31.52 213.12-30.71 212.51-30.11 211.9-29.52 211.08-29.16 210.26-28.81 209.33-28.81L209.33-28.81Q208.41-28.81 207.59-29.16 206.77-29.52 206.17-30.11 205.57-30.71 205.22-31.52 204.87-32.32 204.87-33.25L204.87-33.25Q204.87-34.16 205.22-34.97 205.57-35.79 206.17-36.39 206.77-36.99 207.59-37.34 208.41-37.7 209.33-37.7L209.33-37.7Q210.26-37.7 211.08-37.34 211.9-36.99 212.51-36.39 213.12-35.79 213.47-34.97 213.83-34.16 213.83-33.25ZM212.68-26.15L212.68 0 205.96 0 205.96-26.15 212.68-26.15ZM243.02-13.31L243.02-13.31Q243.02-10.38 241.97-7.85 240.92-5.32 239.12-3.48 237.31-1.64 234.88-0.57 232.45 0.49 229.67 0.49L229.67 0.49Q226.91 0.49 224.48-0.57 222.05-1.64 220.23-3.48 218.41-5.32 217.36-7.85 216.31-10.38 216.31-13.31L216.31-13.31Q216.31-16.28 217.36-18.82 218.41-21.36 220.23-23.21 222.05-25.05 224.48-26.1 226.91-27.15 229.67-27.15L229.67-27.15Q232.45-27.15 234.88-26.16 237.31-25.17 239.12-23.35 240.92-21.53 241.97-18.98 243.02-16.43 243.02-13.31ZM236.31-13.31L236.31-13.31Q236.31-14.92 235.78-16.22 235.26-17.53 234.36-18.47 233.45-19.41 232.24-19.91 231.03-20.41 229.67-20.41L229.67-20.41Q228.3-20.41 227.09-19.91 225.88-19.41 224.99-18.47 224.1-17.53 223.59-16.22 223.08-14.92 223.08-13.31L223.08-13.31Q223.08-11.79 223.59-10.5 224.1-9.2 224.99-8.25 225.88-7.3 227.09-6.75 228.3-6.2 229.67-6.2L229.67-6.2Q231.03-6.2 232.24-6.71 233.45-7.23 234.36-8.15 235.26-9.08 235.78-10.4 236.31-11.72 236.31-13.31ZM261.06 0L261.06 0 245.83 0 245.83-6.64 261.06-6.64Q261.75-6.64 262.23-7.13 262.72-7.62 262.72-8.3L262.72-8.3Q262.72-9.01 262.23-9.23 261.75-9.45 261.06-9.45L261.06-9.45 254.13-9.45Q252.39-9.45 250.88-10.11 249.37-10.77 248.24-11.9 247.12-13.04 246.47-14.55 245.83-16.06 245.83-17.8L245.83-17.8Q245.83-19.53 246.47-21.04 247.12-22.56 248.24-23.68 249.37-24.8 250.88-25.45 252.39-26.1 254.13-26.1L254.13-26.1 267.63-26.1 267.63-19.46 254.13-19.46Q253.44-19.46 252.96-18.97 252.47-18.48 252.47-17.8L252.47-17.8Q252.47-17.09 252.96-16.59 253.44-16.09 254.13-16.09L254.13-16.09 261.06-16.09Q262.77-16.09 264.28-15.52 265.8-14.94 266.92-13.92 268.04-12.89 268.7-11.45 269.36-10.01 269.36-8.3L269.36-8.3Q269.36-6.57 268.7-5.07 268.04-3.56 266.92-2.43 265.8-1.29 264.28-0.65 262.77 0 261.06 0Z" opacity="1" transform="matrix(1,0,0,1,0,0)" fill="#ffffff" class="wordmark-text-0" data-fill-palette-color="primary" id="text-0"></path></svg></g></svg></g></svg></g></svg></g><g transform="matrix(1,0,0,1,408.9042019218477,0)"><svg viewBox="0 0 167.38782341890172 110.47596345647513" height="110.47596345647513" width="167.38782341890172"><g><svg xmlns="http://www.w3.org/2000/svg" xmlns:xlink="http://www.w3.org/1999/xlink" version="1.1" x="0" y="0" viewBox="0 17 100 66" enable-background="new 0 0 100 100" xml:space="preserve" height="110.47596345647513" width="167.38782341890172" class="icon-icon-0" data-fill-palette-color="accent" id="icon-0"><g display="none" fill="#398378" data-fill-palette-color="accent"><path display="inline" fill-rule="evenodd" clip-rule="evenodd" d="M20.574 64.951h11.054c-0.673-1.912-1.123-3.93-1.318-6.023h-8.533c-7.975 0-14.44-6.473-14.44-14.456 0-7.983 6.466-14.456 14.44-14.456h21.862c7.977 0 14.441 6.473 14.441 14.456 0 6.489-4.268 11.978-10.146 13.806 0.824 1.5 2.18 3.689 3.862 5.385C59.568 60.76 65.1 53.266 65.1 44.472c0-11.31-9.158-20.479-20.458-20.479H20.574c-11.299 0-20.458 9.17-20.458 20.479C0.116 55.785 9.275 64.951 20.574 64.951z" fill="#ffffff" data-fill-palette-color="accent"></path><path display="inline" fill-rule="evenodd" clip-rule="evenodd" d="M35.015 56.52c0 11.311 9.16 20.48 20.458 20.48h24.068C90.841 77 100 67.83 100 56.52c0-11.312-9.159-20.48-20.458-20.48H68.471c0.677 1.913 1.13 3.931 1.33 6.023h8.738c7.974 0 14.439 6.474 14.439 14.457 0 7.984-6.466 14.457-14.439 14.457H56.677c-7.976 0-14.442-6.473-14.442-14.457 0-6.615 4.437-12.19 10.495-13.908-0.447-2.259-1.676-4.238-3.4-5.632C41.034 39.592 35.015 47.352 35.015 56.52z" fill="#ffffff" data-fill-palette-color="accent"></path></g><g fill="#398378" data-fill-palette-color="accent"><path d="M88 17H12C5.373 17 0 22.373 0 29v42c0 6.627 5.373 12 12 12h76c6.627 0 12-5.373 12-12V29C100 22.373 94.627 17 88 17zM42 62.802V35.913l23.287 13.445L42 62.802z" fill="#ffffff" data-fill-palette-color="accent"></path></g></svg></g></svg></g></svg></g><defs></defs></svg><rect width="395.52" height="75.82172083757159" fill="none" stroke="none" visibility="hidden"></rect></g></svg></g></svg>