<svg xmlns="http://www.w3.org/2000/svg" version="1.1" xmlns:xlink="http://www.w3.org/1999/xlink" xmlns:svgjs="http://svgjs.dev/svgjs" width="2000" height="308" viewBox="0 0 2000 308"><g transform="matrix(1,0,0,1,-1.2121212121212466,0.5481595601793856)"><svg viewBox="0 0 396 61" data-background-color="#111111" preserveAspectRatio="xMidYMid meet" height="308" width="2000" xmlns="http://www.w3.org/2000/svg" xmlns:xlink="http://www.w3.org/1999/xlink"><g id="tight-bounds" transform="matrix(1,0,0,1,0.2400000000000091,-0.10856406873682545)"><svg viewBox="0 0 395.52 61.21712813747367" height="61.21712813747367" width="395.52"><g><svg viewBox="0 0 541.6315092657876 83.83172913131315" height="61.21712813747367" width="395.52"><g transform="matrix(1,0,0,1,0,1.476053117845126)"><svg viewBox="0 0 395.52 80.8796228956229" height="80.8796228956229" width="395.52"><g id="textblocktransform"><svg viewBox="0 0 395.52 80.8796228956229" height="80.8796228956229" width="395.52" id="textblock"><g><svg viewBox="0 0 395.52 80.8796228956229" height="80.8796228956229" width="395.52"><g transform="matrix(1,0,0,1,0,0)"><svg width="395.52" viewBox="1.9 -45.15 222.73 45.55" height="80.8796228956229" data-palette-color="#ffffff"><path d="M9.65 0L1.9 0 1.9-42.95 15-42.95 18.6-16.75 22.2-42.95 35.4-42.95 35.4 0 27.55 0 27.55-30.95 22.6 0 14.9 0 9.65-30.95 9.65 0ZM45.7 0.4Q41.45 0.4 39.87-2.43 38.3-5.25 38.3-10.5L38.3-10.5Q38.3-14.8 39.42-17.1 40.55-19.4 42.55-20.48 44.55-21.55 48.65-22.85L48.65-22.85 51.05-23.65 51.05-23.75 51.05-27.4Q51.05-28.85 50.47-29.63 49.9-30.4 49.1-30.4L49.1-30.4Q48.4-30.4 47.87-29.75 47.35-29.1 47.35-28L47.35-28 47.35-25.8 38.85-25.8 38.85-27Q38.85-32.4 41.37-34.7 43.9-37 49.6-37L49.6-37Q54.15-37 57-34.63 59.85-32.25 59.85-27.9L59.85-27.9 59.85 0 51.15 0 51.15-4.35Q50.5-2.1 49.07-0.85 47.65 0.4 45.7 0.4L45.7 0.4ZM49.15-6.4Q50.15-6.4 50.57-7.23 51-8.05 51-9.25L51-9.25 51-19.45Q49.05-18.7 48.12-17.55 47.2-16.4 47.2-14.35L47.2-14.35 47.2-9.65Q47.2-6.4 49.15-6.4L49.15-6.4ZM70.75 0.4Q67.3 0.4 66-1.05 64.7-2.5 64.7-5.7L64.7-5.7 64.7-28.55 62.25-28.55 62.25-35.2 64.7-35.2 64.7-42.95 73.2-42.95 73.2-35.2 75.7-35.2 75.7-28.55 73.2-28.55 73.2-8Q73.2-7.05 73.35-6.6 73.5-6.15 74.15-6.15L74.15-6.15Q74.65-6.15 75.1-6.2 75.55-6.25 75.7-6.25L75.7-6.25 75.7-0.25Q74.95-0.05 73.52 0.18 72.1 0.4 70.75 0.4L70.75 0.4ZM88.79 0.4Q82.94 0.4 80.34-2.5 77.74-5.4 77.74-11.85L77.74-11.85 77.74-16.05 86.19-16.05 86.19-10.7Q86.19-7.5 88.24-7.5L88.24-7.5Q89.39-7.5 89.84-8.18 90.29-8.85 90.29-10.45L90.29-10.45Q90.29-12.55 89.79-13.93 89.29-15.3 88.52-16.23 87.74-17.15 85.74-19.1L85.74-19.1 82.04-22.8Q77.74-27 77.74-32.1L77.74-32.1Q77.74-37.6 80.27-40.48 82.79-43.35 87.64-43.35L87.64-43.35Q93.44-43.35 95.99-40.28 98.54-37.2 98.54-30.65L98.54-30.65 89.79-30.65 89.74-33.6Q89.74-34.45 89.27-34.95 88.79-35.45 87.94-35.45L87.94-35.45Q86.94-35.45 86.44-34.9 85.94-34.35 85.94-33.4L85.94-33.4Q85.94-31.3 88.34-29.05L88.34-29.05 93.34-24.25Q95.09-22.55 96.24-21.03 97.39-19.5 98.09-17.43 98.79-15.35 98.79-12.5L98.79-12.5Q98.79-6.15 96.47-2.88 94.14 0.4 88.79 0.4L88.79 0.4ZM109.04 0.4Q105.59 0.4 104.29-1.05 102.99-2.5 102.99-5.7L102.99-5.7 102.99-28.55 100.54-28.55 100.54-35.2 102.99-35.2 102.99-42.95 111.49-42.95 111.49-35.2 113.99-35.2 113.99-28.55 111.49-28.55 111.49-8Q111.49-7.05 111.64-6.6 111.79-6.15 112.44-6.15L112.44-6.15Q112.94-6.15 113.39-6.2 113.84-6.25 113.99-6.25L113.99-6.25 113.99-0.25Q113.24-0.05 111.82 0.18 110.39 0.4 109.04 0.4L109.04 0.4ZM123.79 0.4Q119.69 0.4 118.16-2.05 116.64-4.5 116.64-9.35L116.64-9.35 116.64-36.6 125.44-36.6 125.44-11.1Q125.44-10.75 125.44-9.22 125.44-7.7 125.91-7.08 126.39-6.45 127.39-6.45L127.39-6.45Q128.74-6.45 129.09-7.58 129.44-8.7 129.44-10.8L129.44-10.8 129.44-11.1 129.49-36.6 138.19-36.6 138.19 0 129.44 0 129.44-3.9Q128.54-1.6 127.34-0.6 126.14 0.4 123.79 0.4L123.79 0.4ZM148.88 0.4Q145.69 0.4 144.06-1.13 142.44-2.65 141.91-5.18 141.38-7.7 141.38-11.65L141.38-11.65 141.49-28.15Q141.49-32.05 143.46-34.52 145.44-37 149.03-37L149.03-37Q152.59-37 154.34-34.65L154.34-34.65 154.34-43.2 163.09-43.2 163.09 0 154.34 0 154.34-3.9Q153.59-1.75 152.31-0.68 151.03 0.4 148.88 0.4L148.88 0.4ZM152.24-6.45Q153.53-6.45 153.94-7.73 154.34-9 154.34-11.15L154.34-11.15 154.34-12.7 154.34-26.45Q154.34-28.05 153.88-29.15 153.44-30.25 152.28-30.25L152.28-30.25Q150.99-30.25 150.56-29.23 150.13-28.2 150.13-26.45L150.13-26.45 150.13-11.05Q150.13-6.45 152.24-6.45L152.24-6.45ZM175.28-39.05L166.53-39.05 166.53-45.15 175.28-45.15 175.28-39.05ZM175.28 0L166.53 0 166.53-36.6 175.28-36.6 175.28 0ZM189.38 0.4Q178.43 0.4 178.43-10.95L178.43-10.95 178.43-25.65Q178.43-30.85 181.36-33.93 184.28-37 189.38-37L189.38-37Q194.48-37 197.41-33.93 200.33-30.85 200.33-25.65L200.33-25.65 200.33-10.95Q200.33 0.4 189.38 0.4L189.38 0.4ZM189.38-6.35Q190.43-6.35 190.93-7.1 191.43-7.85 191.43-9.15L191.43-9.15 191.43-27.05Q191.43-30.25 189.38-30.25L189.38-30.25Q187.33-30.25 187.33-27.05L187.33-27.05 187.33-9.15Q187.33-7.85 187.83-7.1 188.33-6.35 189.38-6.35L189.38-6.35ZM213.63 0.4Q202.78 0.4 202.78-10.6L202.78-10.6 202.83-13.5 211.58-13.5 211.63-9.2Q211.63-7.9 212.13-7.23 212.63-6.55 213.78-6.55L213.78-6.55Q215.53-6.55 215.53-9.4L215.53-9.4Q215.53-11.5 214.7-12.7 213.88-13.9 212.08-15.25L212.08-15.25 207.43-18.85Q205.03-20.7 203.98-22.68 202.93-24.65 202.93-28.25L202.93-28.25Q202.93-31.05 204.4-33.02 205.88-35 208.33-36 210.78-37 213.78-37L213.78-37Q224.43-37 224.43-26.4L224.43-26.4 224.43-25.7 215.38-25.7 215.38-27.1Q215.38-28.4 214.95-29.33 214.53-30.25 213.53-30.25L213.53-30.25Q212.63-30.25 212.15-29.73 211.68-29.2 211.68-28.3L211.68-28.3Q211.68-26.3 213.23-25.2L213.23-25.2 218.63-21.25Q221.53-19.1 223.08-16.57 224.63-14.05 224.63-10.2L224.63-10.2Q224.63-5.1 221.73-2.35 218.83 0.4 213.63 0.4L213.63 0.4Z" opacity="1" transform="matrix(1,0,0,1,0,0)" fill="#ffffff" class="wordmark-text-0" data-fill-palette-color="primary" id="text-0"></path></svg></g></svg></g></svg></g></svg></g><g transform="matrix(1,0,0,1,414.61373785470704,0)"><svg viewBox="0 0 127.01777141108053 83.83172913131315" height="83.83172913131315" width="127.01777141108053"><g><svg xmlns="http://www.w3.org/2000/svg" xmlns:xlink="http://www.w3.org/1999/xlink" version="1.1" x="0" y="0" viewBox="0 17 100 66" enable-background="new 0 0 100 100" xml:space="preserve" height="83.83172913131315" width="127.01777141108053" class="icon-icon-0" data-fill-palette-color="accent" id="icon-0"><g display="none" fill="#ffffff" data-fill-palette-color="accent"><path display="inline" fill-rule="evenodd" clip-rule="evenodd" d="M20.574 64.951h11.054c-0.673-1.912-1.123-3.93-1.318-6.023h-8.533c-7.975 0-14.44-6.473-14.44-14.456 0-7.983 6.466-14.456 14.44-14.456h21.862c7.977 0 14.441 6.473 14.441 14.456 0 6.489-4.268 11.978-10.146 13.806 0.824 1.5 2.18 3.689 3.862 5.385C59.568 60.76 65.1 53.266 65.1 44.472c0-11.31-9.158-20.479-20.458-20.479H20.574c-11.299 0-20.458 9.17-20.458 20.479C0.116 55.785 9.275 64.951 20.574 64.951z" fill="#ffffff" data-fill-palette-color="accent"></path><path display="inline" fill-rule="evenodd" clip-rule="evenodd" d="M35.015 56.52c0 11.311 9.16 20.48 20.458 20.48h24.068C90.841 77 100 67.83 100 56.52c0-11.312-9.159-20.48-20.458-20.48H68.471c0.677 1.913 1.13 3.931 1.33 6.023h8.738c7.974 0 14.439 6.474 14.439 14.457 0 7.984-6.466 14.457-14.439 14.457H56.677c-7.976 0-14.442-6.473-14.442-14.457 0-6.615 4.437-12.19 10.495-13.908-0.447-2.259-1.676-4.238-3.4-5.632C41.034 39.592 35.015 47.352 35.015 56.52z" fill="#ffffff" data-fill-palette-color="accent"></path></g><g fill="#ffffff" data-fill-palette-color="accent"><path d="M88 17H12C5.373 17 0 22.373 0 29v42c0 6.627 5.373 12 12 12h76c6.627 0 12-5.373 12-12V29C100 22.373 94.627 17 88 17zM42 62.802V35.913l23.287 13.445L42 62.802z" fill="#ffffff" data-fill-palette-color="accent"></path></g></svg></g></svg></g></svg></g><defs></defs></svg><rect width="395.52" height="61.21712813747367" fill="none" stroke="none" visibility="hidden"></rect></g></svg></g></svg>